<svg width="534" height="583" viewBox="0 0 534 583" fill="none" xmlns="http://www.w3.org/2000/svg">
<path d="M163.005 378.481C183.023 398.499 204.947 408.604 228.779 408.794C252.419 408.794 274.248 398.785 294.267 378.767L385.778 287.255L358.325 259.802L267.671 350.456C255.088 363.038 241.743 369.711 227.635 370.474C213.527 370.855 200.467 365.04 188.456 353.029C176.445 341.018 170.631 327.959 171.012 313.851C171.584 299.552 178.161 286.111 190.744 273.529L281.398 182.875L254.23 155.707L162.719 247.219C142.319 267.618 132.215 289.543 132.405 312.993C132.405 336.252 142.605 358.082 163.005 378.481Z" fill="white"/>
<path d="M370.777 66.4382C390.796 86.4564 400.9 108.381 401.091 132.212C401.091 155.853 391.081 177.682 371.063 197.7L279.552 289.212L252.098 261.758L342.752 171.105C355.335 158.522 362.007 145.176 362.77 131.068C363.151 116.96 357.337 103.901 345.326 91.8899C333.315 79.879 320.255 74.0641 306.147 74.4454C291.849 75.0174 278.408 81.5948 265.825 94.1777L175.171 184.831L148.004 157.664L239.515 66.1522C259.915 45.7527 281.839 35.6483 305.289 35.839C328.549 35.8389 350.378 46.0387 370.777 66.4382Z" fill="white"/>
<path d="M163.32 525.056C160.12 525.056 157.16 524.476 154.44 523.316C151.76 522.156 149.4 520.536 147.36 518.456C145.36 516.376 143.8 513.936 142.68 511.136C141.56 508.336 141 505.276 141 501.956C141 498.636 141.54 495.576 142.62 492.776C143.74 489.936 145.3 487.496 147.3 485.456C149.34 483.376 151.72 481.776 154.44 480.656C157.16 479.496 160.12 478.916 163.32 478.916C166.52 478.916 169.38 479.456 171.9 480.536C174.46 481.616 176.62 483.056 178.38 484.856C180.14 486.616 181.4 488.556 182.16 490.676L174.84 494.096C174 491.856 172.58 490.016 170.58 488.576C168.58 487.096 166.16 486.356 163.32 486.356C160.52 486.356 158.04 487.016 155.88 488.336C153.76 489.656 152.1 491.476 150.9 493.796C149.74 496.116 149.16 498.836 149.16 501.956C149.16 505.076 149.74 507.816 150.9 510.176C152.1 512.496 153.76 514.316 155.88 515.636C158.04 516.956 160.52 517.616 163.32 517.616C166.16 517.616 168.58 516.896 170.58 515.456C172.58 513.976 174 512.116 174.84 509.876L182.16 513.296C181.4 515.416 180.14 517.376 178.38 519.176C176.62 520.936 174.46 522.356 171.9 523.436C169.38 524.516 166.52 525.056 163.32 525.056ZM188.785 524.336V479.636H196.945V517.136H216.085V524.336H188.785ZM221.363 524.336V479.636H229.523V524.336H221.363ZM238.121 524.336V479.636H254.801C257.841 479.636 260.521 480.196 262.841 481.316C265.201 482.396 267.041 483.996 268.361 486.116C269.681 488.196 270.341 490.736 270.341 493.736C270.341 496.696 269.661 499.236 268.301 501.356C266.981 503.436 265.161 505.036 262.841 506.156C260.521 507.276 257.841 507.836 254.801 507.836H246.281V524.336H238.121ZM246.281 500.636H254.921C256.401 500.636 257.681 500.356 258.761 499.796C259.841 499.196 260.681 498.376 261.281 497.336C261.881 496.296 262.181 495.096 262.181 493.736C262.181 492.336 261.881 491.136 261.281 490.136C260.681 489.096 259.841 488.296 258.761 487.736C257.681 487.136 256.401 486.836 254.921 486.836H246.281V500.636ZM292.987 525.056C290.147 525.056 287.507 524.536 285.067 523.496C282.667 522.456 280.587 521.016 278.827 519.176C277.107 517.296 275.847 515.116 275.047 512.636L281.827 509.696C282.907 512.256 284.467 514.276 286.507 515.756C288.547 517.196 290.847 517.916 293.407 517.916C294.847 517.916 296.087 517.696 297.127 517.256C298.207 516.776 299.027 516.136 299.587 515.336C300.187 514.536 300.487 513.576 300.487 512.456C300.487 511.136 300.087 510.056 299.287 509.216C298.527 508.336 297.367 507.656 295.807 507.176L287.227 504.416C283.747 503.336 281.127 501.716 279.367 499.556C277.607 497.396 276.727 494.856 276.727 491.936C276.727 489.376 277.347 487.116 278.587 485.156C279.867 483.196 281.627 481.676 283.867 480.596C286.147 479.476 288.747 478.916 291.667 478.916C294.347 478.916 296.807 479.396 299.047 480.356C301.287 481.276 303.207 482.576 304.807 484.256C306.447 485.896 307.667 487.836 308.467 490.076L301.747 493.076C300.867 490.836 299.547 489.116 297.787 487.916C296.027 486.676 293.987 486.056 291.667 486.056C290.307 486.056 289.107 486.296 288.067 486.776C287.027 487.216 286.207 487.856 285.607 488.696C285.047 489.496 284.767 490.456 284.767 491.576C284.767 492.816 285.167 493.916 285.967 494.876C286.767 495.796 287.987 496.516 289.627 497.036L297.847 499.616C301.407 500.776 304.067 502.376 305.827 504.416C307.627 506.456 308.527 508.976 308.527 511.976C308.527 514.536 307.867 516.796 306.547 518.756C305.227 520.716 303.407 522.256 301.087 523.376C298.767 524.496 296.067 525.056 292.987 525.056ZM318.935 524.336V515.936H326.855V524.336H318.935ZM338.55 524.336V479.636H346.71V524.336H338.55ZM355.308 524.336V479.636H369.888C374.608 479.636 378.708 480.596 382.188 482.516C385.708 484.396 388.428 487.016 390.348 490.376C392.268 493.696 393.228 497.556 393.228 501.956C393.228 506.316 392.268 510.196 390.348 513.596C388.428 516.956 385.708 519.596 382.188 521.516C378.708 523.396 374.608 524.336 369.888 524.336H355.308ZM363.468 517.136H370.068C373.108 517.136 375.728 516.516 377.928 515.276C380.168 513.996 381.908 512.236 383.148 509.996C384.388 507.716 385.008 505.036 385.008 501.956C385.008 498.836 384.388 496.156 383.148 493.916C381.908 491.676 380.168 489.936 377.928 488.696C375.728 487.456 373.108 486.836 370.068 486.836H363.468V517.136Z" fill="white"/>
<path d="M10.676 576.624C9.412 576.624 8.236 576.392 7.148 575.928C6.076 575.464 5.14 574.824 4.34 574.008C3.556 573.176 2.94 572.2 2.492 571.08C2.044 569.96 1.82 568.728 1.82 567.384C1.82 566.056 2.036 564.832 2.468 563.712C2.916 562.576 3.54 561.6 4.34 560.784C5.14 559.952 6.076 559.312 7.148 558.864C8.22 558.4 9.396 558.168 10.676 558.168C11.94 558.168 13.068 558.384 14.06 558.816C15.068 559.248 15.916 559.816 16.604 560.52C17.292 561.208 17.788 561.96 18.092 562.776L15.548 563.976C15.164 563.016 14.548 562.24 13.7 561.648C12.868 561.04 11.86 560.736 10.676 560.736C9.492 560.736 8.444 561.016 7.532 561.576C6.62 562.136 5.908 562.912 5.396 563.904C4.9 564.896 4.652 566.056 4.652 567.384C4.652 568.712 4.9 569.88 5.396 570.888C5.908 571.88 6.62 572.656 7.532 573.216C8.444 573.76 9.492 574.032 10.676 574.032C11.86 574.032 12.868 573.736 13.7 573.144C14.548 572.552 15.164 571.776 15.548 570.816L18.092 572.016C17.788 572.816 17.292 573.568 16.604 574.272C15.916 574.976 15.068 575.544 14.06 575.976C13.068 576.408 11.94 576.624 10.676 576.624ZM20.7402 576.336V563.352H23.3323V565.968L23.0923 565.584C23.3803 564.736 23.8443 564.128 24.4843 563.76C25.1243 563.376 25.8923 563.184 26.7883 563.184H27.5803V565.656H26.4523C25.5563 565.656 24.8283 565.936 24.2683 566.496C23.7243 567.04 23.4523 567.824 23.4523 568.848V576.336H20.7402ZM35.5316 576.624C34.2356 576.624 33.0836 576.328 32.0756 575.736C31.0836 575.128 30.3076 574.312 29.7476 573.288C29.1876 572.248 28.9076 571.088 28.9076 569.808C28.9076 568.496 29.1876 567.336 29.7476 566.328C30.3236 565.32 31.0916 564.528 32.0516 563.952C33.0116 563.36 34.0996 563.064 35.3156 563.064C36.2916 563.064 37.1636 563.232 37.9316 563.568C38.6996 563.904 39.3476 564.368 39.8756 564.96C40.4036 565.536 40.8036 566.2 41.0756 566.952C41.3636 567.704 41.5076 568.504 41.5076 569.352C41.5076 569.56 41.4996 569.776 41.4836 570C41.4676 570.224 41.4356 570.432 41.3876 570.624H31.0436V568.464H39.8516L38.5556 569.448C38.7156 568.664 38.6596 567.968 38.3876 567.36C38.1316 566.736 37.7316 566.248 37.1876 565.896C36.6596 565.528 36.0356 565.344 35.3156 565.344C34.5956 565.344 33.9556 565.528 33.3956 565.896C32.8356 566.248 32.4036 566.76 32.0996 567.432C31.7956 568.088 31.6756 568.888 31.7396 569.832C31.6596 570.712 31.7796 571.48 32.0996 572.136C32.4356 572.792 32.8996 573.304 33.4916 573.672C34.0996 574.04 34.7876 574.224 35.5556 574.224C36.3396 574.224 37.0036 574.048 37.5476 573.696C38.1076 573.344 38.5476 572.888 38.8676 572.328L41.0756 573.408C40.8196 574.016 40.4196 574.568 39.8756 575.064C39.3476 575.544 38.7076 575.928 37.9556 576.216C37.2196 576.488 36.4116 576.624 35.5316 576.624ZM47.9251 576.624C47.0451 576.624 46.2691 576.472 45.5971 576.168C44.9411 575.848 44.4291 575.416 44.0611 574.872C43.6931 574.312 43.5091 573.656 43.5091 572.904C43.5091 572.2 43.6611 571.568 43.9651 571.008C44.2851 570.448 44.7731 569.976 45.4291 569.592C46.0851 569.208 46.9091 568.936 47.9011 568.776L52.4131 568.032V570.168L48.4291 570.864C47.7091 570.992 47.1811 571.224 46.8451 571.56C46.5091 571.88 46.3411 572.296 46.3411 572.808C46.3411 573.304 46.5251 573.712 46.8931 574.032C47.2771 574.336 47.7651 574.488 48.3571 574.488C49.0931 574.488 49.7331 574.328 50.2771 574.008C50.8371 573.688 51.2691 573.264 51.5731 572.736C51.8771 572.192 52.0291 571.592 52.0291 570.936V567.6C52.0291 566.96 51.7891 566.44 51.3091 566.04C50.8451 565.624 50.2211 565.416 49.4371 565.416C48.7171 565.416 48.0851 565.608 47.5411 565.992C47.0131 566.36 46.6211 566.84 46.3651 567.432L44.1091 566.304C44.3491 565.664 44.7411 565.104 45.2851 564.624C45.8291 564.128 46.4611 563.744 47.1811 563.472C47.9171 563.2 48.6931 563.064 49.5091 563.064C50.5331 563.064 51.4371 563.256 52.2211 563.64C53.0211 564.024 53.6371 564.56 54.0691 565.248C54.5171 565.92 54.7411 566.704 54.7411 567.6V576.336H52.1491V573.984L52.7011 574.056C52.3971 574.584 52.0051 575.04 51.5251 575.424C51.0611 575.808 50.5251 576.104 49.9171 576.312C49.3251 576.52 48.6611 576.624 47.9251 576.624ZM63.2938 576.48C61.9338 576.48 60.8778 576.096 60.1258 575.328C59.3738 574.56 58.9978 573.48 58.9978 572.088V565.8H56.7178V563.352H57.0778C57.6858 563.352 58.1578 563.176 58.4938 562.824C58.8298 562.472 58.9978 561.992 58.9978 561.384V560.376H61.7098V563.352H64.6618V565.8H61.7098V571.968C61.7098 572.416 61.7818 572.8 61.9258 573.12C62.0698 573.424 62.3018 573.664 62.6218 573.84C62.9418 574 63.3578 574.08 63.8698 574.08C63.9978 574.08 64.1418 574.072 64.3018 574.056C64.4618 574.04 64.6138 574.024 64.7578 574.008V576.336C64.5338 576.368 64.2858 576.4 64.0138 576.432C63.7418 576.464 63.5018 576.48 63.2938 576.48ZM73.2659 576.624C71.9699 576.624 70.8179 576.328 69.8099 575.736C68.8179 575.128 68.0419 574.312 67.4819 573.288C66.9219 572.248 66.6419 571.088 66.6419 569.808C66.6419 568.496 66.9219 567.336 67.4819 566.328C68.0579 565.32 68.8259 564.528 69.7859 563.952C70.7459 563.36 71.8339 563.064 73.0499 563.064C74.0259 563.064 74.8979 563.232 75.6659 563.568C76.4339 563.904 77.0819 564.368 77.6099 564.96C78.1379 565.536 78.5379 566.2 78.8099 566.952C79.0979 567.704 79.2419 568.504 79.2419 569.352C79.2419 569.56 79.2339 569.776 79.2179 570C79.2019 570.224 79.1699 570.432 79.1219 570.624H68.7779V568.464H77.5859L76.2899 569.448C76.4499 568.664 76.3939 567.968 76.1219 567.36C75.8659 566.736 75.4659 566.248 74.9219 565.896C74.3939 565.528 73.7699 565.344 73.0499 565.344C72.3299 565.344 71.6899 565.528 71.1299 565.896C70.5699 566.248 70.1379 566.76 69.8339 567.432C69.5299 568.088 69.4099 568.888 69.4739 569.832C69.3939 570.712 69.5139 571.48 69.8339 572.136C70.1699 572.792 70.6339 573.304 71.2259 573.672C71.8339 574.04 72.5219 574.224 73.2899 574.224C74.0739 574.224 74.7379 574.048 75.2819 573.696C75.8419 573.344 76.2819 572.888 76.6019 572.328L78.8099 573.408C78.5539 574.016 78.1539 574.568 77.6099 575.064C77.0819 575.544 76.4419 575.928 75.6899 576.216C74.9539 576.488 74.1459 576.624 73.2659 576.624ZM90.884 576.336V568.272L84.764 558.456H87.956L92.852 566.4H91.724L96.596 558.456H99.788L93.692 568.272V576.336H90.884ZM105.637 576.624C104.389 576.624 103.245 576.328 102.205 575.736C101.181 575.144 100.365 574.336 99.7571 573.312C99.1491 572.288 98.8451 571.128 98.8451 569.832C98.8451 568.52 99.1491 567.36 99.7571 566.352C100.365 565.328 101.181 564.528 102.205 563.952C103.229 563.36 104.373 563.064 105.637 563.064C106.917 563.064 108.061 563.36 109.069 563.952C110.093 564.528 110.901 565.328 111.493 566.352C112.101 567.36 112.405 568.52 112.405 569.832C112.405 571.144 112.101 572.312 111.493 573.336C110.885 574.36 110.069 575.168 109.045 575.76C108.021 576.336 106.885 576.624 105.637 576.624ZM105.637 574.104C106.405 574.104 107.085 573.92 107.677 573.552C108.269 573.184 108.733 572.68 109.069 572.04C109.421 571.384 109.597 570.648 109.597 569.832C109.597 569.016 109.421 568.288 109.069 567.648C108.733 567.008 108.269 566.504 107.677 566.136C107.085 565.768 106.405 565.584 105.637 565.584C104.885 565.584 104.205 565.768 103.597 566.136C103.005 566.504 102.533 567.008 102.181 567.648C101.845 568.288 101.677 569.016 101.677 569.832C101.677 570.648 101.845 571.384 102.181 572.04C102.533 572.68 103.005 573.184 103.597 573.552C104.205 573.92 104.885 574.104 105.637 574.104ZM119.685 576.624C118.709 576.624 117.853 576.408 117.117 575.976C116.381 575.528 115.805 574.912 115.389 574.128C114.989 573.328 114.789 572.408 114.789 571.368V563.352H117.501V571.128C117.501 571.72 117.621 572.24 117.861 572.688C118.101 573.136 118.437 573.488 118.869 573.744C119.301 573.984 119.797 574.104 120.357 574.104C120.933 574.104 121.437 573.976 121.869 573.72C122.301 573.464 122.637 573.104 122.877 572.64C123.133 572.176 123.261 571.632 123.261 571.008V563.352H125.949V576.336H123.381V573.792L123.669 574.128C123.365 574.928 122.861 575.544 122.157 575.976C121.453 576.408 120.629 576.624 119.685 576.624ZM129.115 576.336V563.352H131.707V565.968L131.467 565.584C131.755 564.736 132.219 564.128 132.859 563.76C133.499 563.376 134.267 563.184 135.163 563.184H135.955V565.656H134.827C133.931 565.656 133.203 565.936 132.643 566.496C132.099 567.04 131.827 567.824 131.827 568.848V576.336H129.115ZM148.534 576.624C147.414 576.624 146.374 576.416 145.414 576C144.454 575.568 143.638 574.984 142.966 574.248C142.294 573.512 141.798 572.664 141.478 571.704L143.878 570.696C144.31 571.8 144.942 572.648 145.774 573.24C146.606 573.832 147.566 574.128 148.654 574.128C149.294 574.128 149.854 574.032 150.334 573.84C150.814 573.632 151.182 573.344 151.438 572.976C151.71 572.608 151.846 572.184 151.846 571.704C151.846 571.048 151.662 570.528 151.294 570.144C150.926 569.76 150.382 569.456 149.662 569.232L146.302 568.176C144.958 567.76 143.934 567.128 143.23 566.28C142.526 565.416 142.174 564.408 142.174 563.256C142.174 562.248 142.422 561.368 142.918 560.616C143.414 559.848 144.094 559.248 144.958 558.816C145.838 558.384 146.838 558.168 147.958 558.168C149.03 558.168 150.006 558.36 150.886 558.744C151.766 559.112 152.518 559.624 153.142 560.28C153.782 560.936 154.246 561.696 154.534 562.56L152.182 563.592C151.83 562.648 151.278 561.92 150.526 561.408C149.79 560.896 148.934 560.64 147.958 560.64C147.366 560.64 146.846 560.744 146.398 560.952C145.95 561.144 145.598 561.432 145.342 561.816C145.102 562.184 144.982 562.616 144.982 563.112C144.982 563.688 145.166 564.2 145.534 564.648C145.902 565.096 146.462 565.432 147.214 565.656L150.334 566.64C151.758 567.072 152.83 567.696 153.55 568.512C154.27 569.312 154.63 570.312 154.63 571.512C154.63 572.504 154.366 573.384 153.838 574.152C153.326 574.92 152.614 575.528 151.702 575.976C150.79 576.408 149.734 576.624 148.534 576.624ZM157.545 576.336V558.168H160.257V565.896L159.825 565.56C160.145 564.744 160.657 564.128 161.361 563.712C162.065 563.28 162.881 563.064 163.809 563.064C164.769 563.064 165.617 563.272 166.353 563.688C167.089 564.104 167.665 564.68 168.081 565.416C168.497 566.152 168.705 566.992 168.705 567.936V576.336H166.017V568.68C166.017 568.024 165.889 567.472 165.633 567.024C165.393 566.56 165.057 566.208 164.625 565.968C164.193 565.712 163.697 565.584 163.137 565.584C162.593 565.584 162.097 565.712 161.649 565.968C161.217 566.208 160.873 566.56 160.617 567.024C160.377 567.488 160.257 568.04 160.257 568.68V576.336H157.545ZM177.871 576.624C176.623 576.624 175.479 576.328 174.439 575.736C173.415 575.144 172.599 574.336 171.991 573.312C171.383 572.288 171.079 571.128 171.079 569.832C171.079 568.52 171.383 567.36 171.991 566.352C172.599 565.328 173.415 564.528 174.439 563.952C175.463 563.36 176.607 563.064 177.871 563.064C179.151 563.064 180.295 563.36 181.303 563.952C182.327 564.528 183.135 565.328 183.727 566.352C184.335 567.36 184.639 568.52 184.639 569.832C184.639 571.144 184.335 572.312 183.727 573.336C183.119 574.36 182.303 575.168 181.279 575.76C180.255 576.336 179.119 576.624 177.871 576.624ZM177.871 574.104C178.639 574.104 179.319 573.92 179.911 573.552C180.503 573.184 180.967 572.68 181.303 572.04C181.655 571.384 181.831 570.648 181.831 569.832C181.831 569.016 181.655 568.288 181.303 567.648C180.967 567.008 180.503 566.504 179.911 566.136C179.319 565.768 178.639 565.584 177.871 565.584C177.119 565.584 176.439 565.768 175.831 566.136C175.239 566.504 174.767 567.008 174.415 567.648C174.079 568.288 173.911 569.016 173.911 569.832C173.911 570.648 174.079 571.384 174.415 572.04C174.767 572.68 175.239 573.184 175.831 573.552C176.439 573.92 177.119 574.104 177.871 574.104ZM187.287 576.336V563.352H189.879V565.968L189.639 565.584C189.927 564.736 190.391 564.128 191.031 563.76C191.671 563.376 192.439 563.184 193.335 563.184H194.127V565.656H192.999C192.103 565.656 191.375 565.936 190.815 566.496C190.271 567.04 189.999 567.824 189.999 568.848V576.336H187.287ZM201.833 576.48C200.473 576.48 199.417 576.096 198.665 575.328C197.913 574.56 197.537 573.48 197.537 572.088V565.8H195.257V563.352H195.617C196.225 563.352 196.697 563.176 197.033 562.824C197.369 562.472 197.537 561.992 197.537 561.384V560.376H200.249V563.352H203.201V565.8H200.249V571.968C200.249 572.416 200.321 572.8 200.465 573.12C200.609 573.424 200.841 573.664 201.161 573.84C201.481 574 201.897 574.08 202.409 574.08C202.537 574.08 202.681 574.072 202.841 574.056C203.001 574.04 203.153 574.024 203.297 574.008V576.336C203.073 576.368 202.825 576.4 202.553 576.432C202.281 576.464 202.041 576.48 201.833 576.48ZM211.805 576.624C210.509 576.624 209.357 576.328 208.349 575.736C207.357 575.128 206.581 574.312 206.021 573.288C205.461 572.248 205.181 571.088 205.181 569.808C205.181 568.496 205.461 567.336 206.021 566.328C206.597 565.32 207.365 564.528 208.325 563.952C209.285 563.36 210.373 563.064 211.589 563.064C212.565 563.064 213.437 563.232 214.205 563.568C214.973 563.904 215.621 564.368 216.149 564.96C216.677 565.536 217.077 566.2 217.349 566.952C217.637 567.704 217.781 568.504 217.781 569.352C217.781 569.56 217.773 569.776 217.757 570C217.741 570.224 217.709 570.432 217.661 570.624H207.317V568.464H216.125L214.829 569.448C214.989 568.664 214.933 567.968 214.661 567.36C214.405 566.736 214.005 566.248 213.461 565.896C212.933 565.528 212.309 565.344 211.589 565.344C210.869 565.344 210.229 565.528 209.669 565.896C209.109 566.248 208.677 566.76 208.373 567.432C208.069 568.088 207.949 568.888 208.013 569.832C207.933 570.712 208.053 571.48 208.373 572.136C208.709 572.792 209.173 573.304 209.765 573.672C210.373 574.04 211.061 574.224 211.829 574.224C212.613 574.224 213.277 574.048 213.821 573.696C214.381 573.344 214.821 572.888 215.141 572.328L217.349 573.408C217.093 574.016 216.693 574.568 216.149 575.064C215.621 575.544 214.981 575.928 214.229 576.216C213.493 576.488 212.685 576.624 211.805 576.624ZM220.428 576.336V563.352H223.02V565.896L222.708 565.56C223.028 564.744 223.54 564.128 224.244 563.712C224.948 563.28 225.764 563.064 226.692 563.064C227.652 563.064 228.5 563.272 229.236 563.688C229.972 564.104 230.548 564.68 230.964 565.416C231.38 566.152 231.588 567 231.588 567.96V576.336H228.9V568.68C228.9 568.024 228.78 567.472 228.54 567.024C228.3 566.56 227.956 566.208 227.508 565.968C227.076 565.712 226.58 565.584 226.02 565.584C225.46 565.584 224.956 565.712 224.508 565.968C224.076 566.208 223.74 566.56 223.5 567.024C223.26 567.488 223.14 568.04 223.14 568.68V576.336H220.428ZM238.95 576.336V558.456H241.782V573.816H249.51V576.336H238.95ZM251.623 576.336V563.352H254.335V576.336H251.623ZM251.623 561.576V558.456H254.335V561.576H251.623ZM257.506 576.336V563.352H260.098V565.896L259.786 565.56C260.106 564.744 260.618 564.128 261.322 563.712C262.026 563.28 262.842 563.064 263.77 563.064C264.73 563.064 265.578 563.272 266.314 563.688C267.05 564.104 267.626 564.68 268.042 565.416C268.458 566.152 268.666 567 268.666 567.96V576.336H265.978V568.68C265.978 568.024 265.858 567.472 265.618 567.024C265.378 566.56 265.034 566.208 264.586 565.968C264.154 565.712 263.658 565.584 263.098 565.584C262.538 565.584 262.034 565.712 261.586 565.968C261.154 566.208 260.818 566.56 260.578 567.024C260.338 567.488 260.218 568.04 260.218 568.68V576.336H257.506ZM271.568 576.336V558.168H274.28V570.336L273.224 570.072L279.728 563.352H283.112L278.216 568.56L283.328 576.336H280.208L275.648 569.448L277.256 569.232L273.416 573.312L274.28 571.512V576.336H271.568ZM289.986 576.624C288.658 576.624 287.49 576.296 286.482 575.64C285.49 574.984 284.794 574.104 284.394 573L286.482 572.016C286.834 572.752 287.314 573.336 287.922 573.768C288.546 574.2 289.234 574.416 289.986 574.416C290.626 574.416 291.146 574.272 291.546 573.984C291.946 573.696 292.146 573.304 292.146 572.808C292.146 572.488 292.058 572.232 291.882 572.04C291.706 571.832 291.482 571.664 291.21 571.536C290.954 571.408 290.69 571.312 290.418 571.248L288.378 570.672C287.258 570.352 286.418 569.872 285.858 569.232C285.314 568.576 285.042 567.816 285.042 566.952C285.042 566.168 285.242 565.488 285.642 564.912C286.042 564.32 286.594 563.864 287.298 563.544C288.002 563.224 288.794 563.064 289.674 563.064C290.858 563.064 291.914 563.36 292.842 563.952C293.77 564.528 294.426 565.336 294.81 566.376L292.722 567.36C292.466 566.736 292.058 566.24 291.498 565.872C290.954 565.504 290.338 565.32 289.65 565.32C289.058 565.32 288.586 565.464 288.234 565.752C287.882 566.024 287.706 566.384 287.706 566.832C287.706 567.136 287.786 567.392 287.946 567.6C288.106 567.792 288.314 567.952 288.57 568.08C288.826 568.192 289.09 568.288 289.362 568.368L291.474 568.992C292.546 569.296 293.37 569.776 293.946 570.432C294.522 571.072 294.81 571.84 294.81 572.736C294.81 573.504 294.602 574.184 294.186 574.776C293.786 575.352 293.226 575.808 292.506 576.144C291.786 576.464 290.946 576.624 289.986 576.624ZM298.163 579.864V578.544C298.691 578.416 299.099 578.168 299.387 577.8C299.675 577.448 299.851 576.96 299.915 576.336H298.643V573.216H301.403V575.256C301.403 576.536 301.131 577.568 300.587 578.352C300.043 579.136 299.235 579.64 298.163 579.864ZM318.129 576.624C316.865 576.624 315.689 576.392 314.601 575.928C313.529 575.464 312.593 574.824 311.793 574.008C311.009 573.176 310.393 572.2 309.945 571.08C309.497 569.96 309.273 568.728 309.273 567.384C309.273 566.056 309.489 564.832 309.921 563.712C310.369 562.576 310.993 561.6 311.793 560.784C312.593 559.952 313.529 559.312 314.601 558.864C315.673 558.4 316.849 558.168 318.129 558.168C319.393 558.168 320.521 558.384 321.513 558.816C322.521 559.248 323.369 559.816 324.057 560.52C324.745 561.208 325.241 561.96 325.545 562.776L323.001 563.976C322.617 563.016 322.001 562.24 321.153 561.648C320.321 561.04 319.313 560.736 318.129 560.736C316.945 560.736 315.897 561.016 314.985 561.576C314.073 562.136 313.361 562.912 312.849 563.904C312.353 564.896 312.105 566.056 312.105 567.384C312.105 568.712 312.353 569.88 312.849 570.888C313.361 571.88 314.073 572.656 314.985 573.216C315.897 573.76 316.945 574.032 318.129 574.032C319.313 574.032 320.321 573.736 321.153 573.144C322.001 572.552 322.617 571.776 323.001 570.816L325.545 572.016C325.241 572.816 324.745 573.568 324.057 574.272C323.369 574.976 322.521 575.544 321.513 575.976C320.521 576.408 319.393 576.624 318.129 576.624ZM332.825 576.624C331.849 576.624 330.993 576.408 330.257 575.976C329.521 575.528 328.945 574.912 328.529 574.128C328.129 573.328 327.929 572.408 327.929 571.368V563.352H330.641V571.128C330.641 571.72 330.761 572.24 331.001 572.688C331.241 573.136 331.577 573.488 332.009 573.744C332.441 573.984 332.937 574.104 333.497 574.104C334.073 574.104 334.577 573.976 335.009 573.72C335.441 573.464 335.777 573.104 336.017 572.64C336.273 572.176 336.401 571.632 336.401 571.008V563.352H339.089V576.336H336.521V573.792L336.809 574.128C336.505 574.928 336.001 575.544 335.297 575.976C334.593 576.408 333.769 576.624 332.825 576.624ZM347.056 576.624C345.728 576.624 344.56 576.296 343.552 575.64C342.56 574.984 341.864 574.104 341.464 573L343.552 572.016C343.904 572.752 344.384 573.336 344.992 573.768C345.616 574.2 346.304 574.416 347.056 574.416C347.696 574.416 348.216 574.272 348.616 573.984C349.016 573.696 349.216 573.304 349.216 572.808C349.216 572.488 349.128 572.232 348.952 572.04C348.776 571.832 348.552 571.664 348.28 571.536C348.024 571.408 347.76 571.312 347.488 571.248L345.448 570.672C344.328 570.352 343.488 569.872 342.928 569.232C342.384 568.576 342.112 567.816 342.112 566.952C342.112 566.168 342.312 565.488 342.712 564.912C343.112 564.32 343.664 563.864 344.368 563.544C345.072 563.224 345.864 563.064 346.744 563.064C347.928 563.064 348.984 563.36 349.912 563.952C350.84 564.528 351.496 565.336 351.88 566.376L349.792 567.36C349.536 566.736 349.128 566.24 348.568 565.872C348.024 565.504 347.408 565.32 346.72 565.32C346.128 565.32 345.656 565.464 345.304 565.752C344.952 566.024 344.776 566.384 344.776 566.832C344.776 567.136 344.856 567.392 345.016 567.6C345.176 567.792 345.384 567.952 345.64 568.08C345.896 568.192 346.16 568.288 346.432 568.368L348.544 568.992C349.616 569.296 350.44 569.776 351.016 570.432C351.592 571.072 351.88 571.84 351.88 572.736C351.88 573.504 351.672 574.184 351.256 574.776C350.856 575.352 350.296 575.808 349.576 576.144C348.856 576.464 348.016 576.624 347.056 576.624ZM360.153 576.48C358.793 576.48 357.737 576.096 356.985 575.328C356.233 574.56 355.857 573.48 355.857 572.088V565.8H353.577V563.352H353.937C354.545 563.352 355.017 563.176 355.353 562.824C355.689 562.472 355.857 561.992 355.857 561.384V560.376H358.569V563.352H361.521V565.8H358.569V571.968C358.569 572.416 358.641 572.8 358.785 573.12C358.929 573.424 359.161 573.664 359.481 573.84C359.801 574 360.217 574.08 360.729 574.08C360.857 574.08 361.001 574.072 361.161 574.056C361.321 574.04 361.473 574.024 361.617 574.008V576.336C361.393 576.368 361.145 576.4 360.873 576.432C360.601 576.464 360.361 576.48 360.153 576.48ZM370.293 576.624C369.045 576.624 367.901 576.328 366.861 575.736C365.837 575.144 365.021 574.336 364.413 573.312C363.805 572.288 363.501 571.128 363.501 569.832C363.501 568.52 363.805 567.36 364.413 566.352C365.021 565.328 365.837 564.528 366.861 563.952C367.885 563.36 369.029 563.064 370.293 563.064C371.573 563.064 372.717 563.36 373.725 563.952C374.749 564.528 375.557 565.328 376.149 566.352C376.757 567.36 377.061 568.52 377.061 569.832C377.061 571.144 376.757 572.312 376.149 573.336C375.541 574.36 374.725 575.168 373.701 575.76C372.677 576.336 371.541 576.624 370.293 576.624ZM370.293 574.104C371.061 574.104 371.741 573.92 372.333 573.552C372.925 573.184 373.389 572.68 373.725 572.04C374.077 571.384 374.253 570.648 374.253 569.832C374.253 569.016 374.077 568.288 373.725 567.648C373.389 567.008 372.925 566.504 372.333 566.136C371.741 565.768 371.061 565.584 370.293 565.584C369.541 565.584 368.861 565.768 368.253 566.136C367.661 566.504 367.189 567.008 366.837 567.648C366.501 568.288 366.333 569.016 366.333 569.832C366.333 570.648 366.501 571.384 366.837 572.04C367.189 572.68 367.661 573.184 368.253 573.552C368.861 573.92 369.541 574.104 370.293 574.104ZM379.709 576.336V563.352H382.301V566.16L381.965 565.728C382.237 564.848 382.733 564.184 383.453 563.736C384.173 563.288 384.997 563.064 385.925 563.064C386.965 563.064 387.885 563.344 388.685 563.904C389.501 564.448 390.045 565.176 390.317 566.088L389.549 566.16C389.933 565.12 390.517 564.344 391.301 563.832C392.101 563.32 393.013 563.064 394.037 563.064C394.933 563.064 395.741 563.272 396.461 563.688C397.197 564.104 397.781 564.68 398.213 565.416C398.645 566.152 398.861 566.992 398.861 567.936V576.336H396.149V568.68C396.149 568.024 396.029 567.472 395.789 567.024C395.565 566.56 395.245 566.208 394.829 565.968C394.429 565.712 393.957 565.584 393.413 565.584C392.869 565.584 392.389 565.712 391.973 565.968C391.557 566.208 391.229 566.56 390.989 567.024C390.749 567.488 390.629 568.04 390.629 568.68V576.336H387.941V568.68C387.941 568.024 387.821 567.472 387.581 567.024C387.357 566.56 387.037 566.208 386.621 565.968C386.221 565.712 385.741 565.584 385.181 565.584C384.637 565.584 384.157 565.712 383.741 565.968C383.325 566.208 382.997 566.56 382.757 567.024C382.533 567.488 382.421 568.04 382.421 568.68V576.336H379.709ZM401.764 576.336V563.352H404.476V576.336H401.764ZM401.764 561.576V558.456H404.476V561.576H401.764ZM406.471 576.336V574.104L414.103 564.864L414.535 565.8H406.831V563.352H416.935V565.56L409.399 574.824L408.967 573.864H416.959V576.336H406.471ZM425.039 576.624C423.743 576.624 422.591 576.328 421.583 575.736C420.591 575.128 419.815 574.312 419.255 573.288C418.695 572.248 418.415 571.088 418.415 569.808C418.415 568.496 418.695 567.336 419.255 566.328C419.831 565.32 420.599 564.528 421.559 563.952C422.519 563.36 423.607 563.064 424.823 563.064C425.799 563.064 426.671 563.232 427.439 563.568C428.207 563.904 428.855 564.368 429.383 564.96C429.911 565.536 430.311 566.2 430.583 566.952C430.871 567.704 431.015 568.504 431.015 569.352C431.015 569.56 431.007 569.776 430.991 570C430.975 570.224 430.943 570.432 430.895 570.624H420.551V568.464H429.359L428.063 569.448C428.223 568.664 428.167 567.968 427.895 567.36C427.639 566.736 427.239 566.248 426.695 565.896C426.167 565.528 425.543 565.344 424.823 565.344C424.103 565.344 423.463 565.528 422.903 565.896C422.343 566.248 421.911 566.76 421.607 567.432C421.303 568.088 421.183 568.888 421.247 569.832C421.167 570.712 421.287 571.48 421.607 572.136C421.943 572.792 422.407 573.304 422.999 573.672C423.607 574.04 424.295 574.224 425.063 574.224C425.847 574.224 426.511 574.048 427.055 573.696C427.615 573.344 428.055 572.888 428.375 572.328L430.583 573.408C430.327 574.016 429.927 574.568 429.383 575.064C428.855 575.544 428.215 575.928 427.463 576.216C426.727 576.488 425.919 576.624 425.039 576.624ZM436.537 576.336L442.825 558.456H446.329L452.617 576.336H449.593L448.225 572.328H440.953L439.561 576.336H436.537ZM441.769 569.808H447.361L444.193 560.448H444.985L441.769 569.808ZM454.475 576.336V563.352H457.067V565.896L456.755 565.56C457.075 564.744 457.587 564.128 458.291 563.712C458.995 563.28 459.811 563.064 460.739 563.064C461.699 563.064 462.547 563.272 463.283 563.688C464.019 564.104 464.595 564.68 465.011 565.416C465.427 566.152 465.635 567 465.635 567.96V576.336H462.947V568.68C462.947 568.024 462.827 567.472 462.587 567.024C462.347 566.56 462.003 566.208 461.555 565.968C461.123 565.712 460.627 565.584 460.067 565.584C459.507 565.584 459.003 565.712 458.555 565.968C458.123 566.208 457.787 566.56 457.547 567.024C457.307 567.488 457.187 568.04 457.187 568.68V576.336H454.475ZM469.455 581.64C469.135 581.64 468.815 581.608 468.495 581.544C468.191 581.496 467.911 581.416 467.655 581.304V578.976C467.847 579.024 468.079 579.064 468.351 579.096C468.623 579.144 468.887 579.168 469.143 579.168C469.895 579.168 470.447 579 470.799 578.664C471.167 578.344 471.495 577.84 471.783 577.152L472.647 575.184L472.599 577.464L466.983 563.352H469.887L474.039 574.176H473.055L477.183 563.352H480.111L474.375 577.752C474.071 578.52 473.687 579.192 473.223 579.768C472.775 580.36 472.239 580.816 471.615 581.136C471.007 581.472 470.287 581.64 469.455 581.64ZM487.583 576.48C486.223 576.48 485.167 576.096 484.415 575.328C483.663 574.56 483.287 573.48 483.287 572.088V565.8H481.007V563.352H481.367C481.975 563.352 482.447 563.176 482.783 562.824C483.119 562.472 483.287 561.992 483.287 561.384V560.376H485.999V563.352H488.951V565.8H485.999V571.968C485.999 572.416 486.071 572.8 486.215 573.12C486.359 573.424 486.591 573.664 486.911 573.84C487.231 574 487.647 574.08 488.159 574.08C488.287 574.08 488.431 574.072 488.591 574.056C488.751 574.04 488.903 574.024 489.047 574.008V576.336C488.823 576.368 488.575 576.4 488.303 576.432C488.031 576.464 487.791 576.48 487.583 576.48ZM491.693 576.336V563.352H494.405V576.336H491.693ZM491.693 561.576V558.456H494.405V561.576H491.693ZM497.576 576.336V563.352H500.168V566.16L499.832 565.728C500.104 564.848 500.6 564.184 501.32 563.736C502.04 563.288 502.864 563.064 503.792 563.064C504.832 563.064 505.752 563.344 506.552 563.904C507.368 564.448 507.912 565.176 508.184 566.088L507.416 566.16C507.8 565.12 508.384 564.344 509.168 563.832C509.968 563.32 510.88 563.064 511.904 563.064C512.8 563.064 513.608 563.272 514.328 563.688C515.064 564.104 515.648 564.68 516.08 565.416C516.512 566.152 516.728 566.992 516.728 567.936V576.336H514.016V568.68C514.016 568.024 513.896 567.472 513.656 567.024C513.432 566.56 513.112 566.208 512.696 565.968C512.296 565.712 511.824 565.584 511.28 565.584C510.736 565.584 510.256 565.712 509.84 565.968C509.424 566.208 509.096 566.56 508.856 567.024C508.616 567.488 508.496 568.04 508.496 568.68V576.336H505.808V568.68C505.808 568.024 505.688 567.472 505.448 567.024C505.224 566.56 504.904 566.208 504.488 565.968C504.088 565.712 503.608 565.584 503.048 565.584C502.504 565.584 502.024 565.712 501.608 565.968C501.192 566.208 500.864 566.56 500.624 567.024C500.4 567.488 500.288 568.04 500.288 568.68V576.336H497.576ZM525.727 576.624C524.431 576.624 523.279 576.328 522.271 575.736C521.279 575.128 520.503 574.312 519.943 573.288C519.383 572.248 519.103 571.088 519.103 569.808C519.103 568.496 519.383 567.336 519.943 566.328C520.519 565.32 521.287 564.528 522.247 563.952C523.207 563.36 524.295 563.064 525.511 563.064C526.487 563.064 527.359 563.232 528.127 563.568C528.895 563.904 529.543 564.368 530.071 564.96C530.599 565.536 530.999 566.2 531.271 566.952C531.559 567.704 531.703 568.504 531.703 569.352C531.703 569.56 531.695 569.776 531.679 570C531.663 570.224 531.631 570.432 531.583 570.624H521.239V568.464H530.047L528.751 569.448C528.911 568.664 528.855 567.968 528.583 567.36C528.327 566.736 527.927 566.248 527.383 565.896C526.855 565.528 526.231 565.344 525.511 565.344C524.791 565.344 524.151 565.528 523.591 565.896C523.031 566.248 522.599 566.76 522.295 567.432C521.991 568.088 521.871 568.888 521.935 569.832C521.855 570.712 521.975 571.48 522.295 572.136C522.631 572.792 523.095 573.304 523.687 573.672C524.295 574.04 524.983 574.224 525.751 574.224C526.535 574.224 527.199 574.048 527.743 573.696C528.303 573.344 528.743 572.888 529.063 572.328L531.271 573.408C531.015 574.016 530.615 574.568 530.071 575.064C529.543 575.544 528.903 575.928 528.151 576.216C527.415 576.488 526.607 576.624 525.727 576.624Z" fill="white"/>
</svg>
