<svg width="151" height="40" viewBox="0 0 151 40" fill="none" xmlns="http://www.w3.org/2000/svg">
<path d="M11.4472 32.8396C13.0949 34.4873 14.8994 35.3189 16.8609 35.3346C18.8067 35.3346 20.6034 34.5108 22.2511 32.8632L29.7832 25.3311L27.5236 23.0714L20.0621 30.5329C19.0264 31.5686 17.928 32.1178 16.7668 32.1806C15.6056 32.212 14.5307 31.7334 13.5421 30.7448C12.5535 29.7562 12.0749 28.6813 12.1063 27.5201C12.1534 26.3432 12.6947 25.2369 13.7304 24.2012L21.1919 16.7397L18.9558 14.5036L11.4237 22.0358C9.74465 23.7148 8.91298 25.5194 8.92867 27.4495C8.92867 29.3639 9.76819 31.1606 11.4472 32.8396Z" fill="#422AFB"/>
<path d="M28.5486 7.1562C30.1963 8.80385 31.0279 10.6084 31.0436 12.5699C31.0436 14.5157 30.2198 16.3124 28.5722 17.9601L21.04 25.4922L18.7804 23.2326L26.2419 15.7711C27.2776 14.7354 27.8268 13.637 27.8896 12.4758C27.9209 11.3146 27.4423 10.2397 26.4537 9.25107C25.4652 8.26248 24.3903 7.78388 23.2291 7.81526C22.0522 7.86234 20.9459 8.40371 19.9102 9.43937L12.4487 16.9009L10.2126 14.6648L17.7447 7.13266C19.4238 5.45363 21.2283 4.62196 23.1584 4.63765C25.0729 4.63765 26.8696 5.47717 28.5486 7.1562Z" fill="#422AFB"/>
<path d="M40.858 19.848C40.858 18.0453 41.248 16.442 42.028 15.038C42.808 13.6167 43.8913 12.516 45.278 11.736C46.682 10.9387 48.268 10.54 50.036 10.54C52.2027 10.54 54.0573 11.112 55.6 12.256C57.1427 13.4 58.174 14.96 58.694 16.936H53.806C53.442 16.1733 52.922 15.5927 52.246 15.194C51.5873 14.7953 50.8333 14.596 49.984 14.596C48.6147 14.596 47.5053 15.0727 46.656 16.026C45.8067 16.9793 45.382 18.2533 45.382 19.848C45.382 21.4427 45.8067 22.7167 46.656 23.67C47.5053 24.6233 48.6147 25.1 49.984 25.1C50.8333 25.1 51.5873 24.9007 52.246 24.502C52.922 24.1033 53.442 23.5227 53.806 22.76H58.694C58.174 24.736 57.1427 26.296 55.6 27.44C54.0573 28.5667 52.2027 29.13 50.036 29.13C48.268 29.13 46.682 28.74 45.278 27.96C43.8913 27.1627 42.808 26.062 42.028 24.658C41.248 23.254 40.858 21.6507 40.858 19.848ZM65.8627 25.568H71.6867V29H61.4167V10.748H65.8627V25.568ZM78.2533 10.748V29H73.8073V10.748H78.2533ZM95.3853 16.624C95.3853 17.6813 95.1426 18.652 94.6573 19.536C94.1719 20.4027 93.4266 21.1047 92.4213 21.642C91.4159 22.1793 90.1679 22.448 88.6773 22.448H85.9213V29H81.4753V10.748H88.6773C90.1333 10.748 91.3639 10.9993 92.3693 11.502C93.3746 12.0047 94.1286 12.698 94.6313 13.582C95.1339 14.466 95.3853 15.48 95.3853 16.624ZM88.3393 18.912C89.1886 18.912 89.8213 18.7127 90.2373 18.314C90.6533 17.9153 90.8613 17.352 90.8613 16.624C90.8613 15.896 90.6533 15.3327 90.2373 14.934C89.8213 14.5353 89.1886 14.336 88.3393 14.336H85.9213V18.912H88.3393ZM104.304 29.182C102.969 29.182 101.773 28.9653 100.716 28.532C99.6586 28.0987 98.8092 27.4573 98.1679 26.608C97.5439 25.7587 97.2146 24.736 97.1799 23.54H101.912C101.981 24.216 102.215 24.736 102.614 25.1C103.013 25.4467 103.533 25.62 104.174 25.62C104.833 25.62 105.353 25.4727 105.734 25.178C106.115 24.866 106.306 24.4413 106.306 23.904C106.306 23.4533 106.15 23.0807 105.838 22.786C105.543 22.4913 105.171 22.2487 104.72 22.058C104.287 21.8673 103.663 21.6507 102.848 21.408C101.669 21.044 100.707 20.68 99.9619 20.316C99.2166 19.952 98.5752 19.4147 98.0379 18.704C97.5006 17.9933 97.2319 17.066 97.2319 15.922C97.2319 14.2233 97.8472 12.8973 99.0779 11.944C100.309 10.9733 101.912 10.488 103.888 10.488C105.899 10.488 107.519 10.9733 108.75 11.944C109.981 12.8973 110.639 14.232 110.726 15.948H105.916C105.881 15.3587 105.665 14.8993 105.266 14.57C104.867 14.2233 104.356 14.05 103.732 14.05C103.195 14.05 102.761 14.1973 102.432 14.492C102.103 14.7693 101.938 15.1767 101.938 15.714C101.938 16.3033 102.215 16.7627 102.77 17.092C103.325 17.4213 104.191 17.7767 105.37 18.158C106.549 18.5567 107.502 18.938 108.23 19.302C108.975 19.666 109.617 20.1947 110.154 20.888C110.691 21.5813 110.96 22.474 110.96 23.566C110.96 24.606 110.691 25.5507 110.154 26.4C109.634 27.2493 108.871 27.9253 107.866 28.428C106.861 28.9307 105.673 29.182 104.304 29.182ZM114.84 29.156C114.389 29.156 114.008 29 113.696 28.688C113.384 28.376 113.228 27.9947 113.228 27.544C113.228 27.0933 113.384 26.712 113.696 26.4C114.008 26.088 114.389 25.932 114.84 25.932C115.273 25.932 115.637 26.088 115.932 26.4C116.244 26.712 116.4 27.0933 116.4 27.544C116.4 27.9947 116.244 28.376 115.932 28.688C115.637 29 115.273 29.156 114.84 29.156ZM121.911 10.878V29H119.545V10.878H121.911ZM131.585 10.878C133.561 10.878 135.269 11.2507 136.707 11.996C138.163 12.724 139.273 13.7727 140.035 15.142C140.815 16.5113 141.205 18.1233 141.205 19.978C141.205 21.8327 140.815 23.4447 140.035 24.814C139.273 26.166 138.163 27.206 136.707 27.934C135.269 28.6447 133.561 29 131.585 29H125.943V10.878H131.585ZM131.585 27.05C133.925 27.05 135.711 26.4347 136.941 25.204C138.172 23.956 138.787 22.214 138.787 19.978C138.787 17.7247 138.163 15.9653 136.915 14.7C135.685 13.4347 133.908 12.802 131.585 12.802H128.309V27.05H131.585Z" fill="#1B254B"/>
</svg>
