<svg width="444" height="444" viewBox="0 0 444 444" fill="none" xmlns="http://www.w3.org/2000/svg">
<path d="M118.005 378.145C138.023 398.163 159.947 408.267 183.779 408.458C207.419 408.458 229.248 398.449 249.267 378.431L340.778 286.919L313.325 259.466L222.671 350.119C210.088 362.702 196.743 369.375 182.635 370.138C168.527 370.519 155.467 364.704 143.456 352.693C131.445 340.682 125.631 327.623 126.012 313.515C126.584 299.216 133.161 285.775 145.744 273.192L236.398 182.539L209.23 155.371L117.719 246.883C97.3191 267.282 87.2147 289.207 87.4054 312.657C87.4053 335.916 97.6051 357.745 118.005 378.145Z" fill="white"/>
<path d="M325.777 66.1018C345.796 86.1199 355.9 108.045 356.091 131.876C356.091 155.516 346.082 177.346 326.063 197.364L234.552 288.875L207.098 261.422L297.752 170.768C310.335 158.185 317.008 144.84 317.77 130.732C318.151 116.624 312.337 103.564 300.326 91.5534C288.315 79.5425 275.255 73.7277 261.147 74.109C246.849 74.681 233.408 81.2584 220.825 93.8412L130.171 184.495L103.004 157.327L194.515 65.8158C214.915 45.4163 236.84 35.3119 260.289 35.5025C283.549 35.5025 305.378 45.7023 325.777 66.1018Z" fill="white"/>
</svg>
